<?xml version="1.0" encoding="utf-8"?>
<!-- Generator: Adobe Illustrator 24.1.3, SVG Export Plug-In . SVG Version: 6.00 Build 0)  -->
<svg version="1.1"
	 id="Слой_1" inkscape:version="1.0 (4035a4fb49, 2020-05-01)" sodipodi:docname="ph.svg" xmlns:cc="http://creativecommons.org/ns#" xmlns:dc="http://purl.org/dc/elements/1.1/" xmlns:inkscape="http://www.inkscape.org/namespaces/inkscape" xmlns:rdf="http://www.w3.org/1999/02/22-rdf-syntax-ns#" xmlns:sodipodi="http://sodipodi.sourceforge.net/DTD/sodipodi-0.dtd" xmlns:svg="http://www.w3.org/2000/svg"
	 xmlns="http://www.w3.org/2000/svg" xmlns:xlink="http://www.w3.org/1999/xlink" x="0px" y="0px" width="96px" height="96px"
	 viewBox="0 0 96 96" enable-background="new 0 0 96 96" xml:space="preserve">
<sodipodi:namedview  bordercolor="#666666" borderopacity="1" gridtolerance="10" guidetolerance="10" id="namedview1010" inkscape:current-layer="Слой_1" inkscape:cx="26.258824" inkscape:cy="48" inkscape:pageopacity="0" inkscape:pageshadow="2" inkscape:window-height="1017" inkscape:window-maximized="1" inkscape:window-width="1920" inkscape:window-x="-8" inkscape:window-y="32" inkscape:zoom="8.8541667" objecttolerance="10" pagecolor="#ffffff" showgrid="false">
	</sodipodi:namedview>
<path id="path955" opacity="0.4" enable-background="new    " d="M88,49c0,29.635-10.36,40-40,40C18.367,89,8,78.635,8,49
	S18.367,9,48,9S88,19.367,88,49z"/>
<linearGradient id="path962_1_" gradientUnits="userSpaceOnUse" x1="48" y1="752.5367" x2="48" y2="832.5367" gradientTransform="matrix(1 0 0 1 0 -744.8898)">
	<stop  offset="0" style="stop-color:#454449"/>
	<stop  offset="1" style="stop-color:#222126"/>
</linearGradient>
<path id="path962" fill="url(#path962_1_)" d="M88,48c0,29.635-10.36,40-40,40C18.367,88,8,77.635,8,48S18.367,8,48,8
	S88,18.367,88,48z"/>
<linearGradient id="path969_1_" gradientUnits="userSpaceOnUse" x1="48" y1="753.1268" x2="48" y2="832.3718" gradientTransform="matrix(1 0 0 1 0 -744.8898)">
	<stop  offset="0" style="stop-color:#FFFFFF"/>
	<stop  offset="1" style="stop-color:#FFFFFF"/>
</linearGradient>
<path id="path969" opacity="0.15" fill="url(#path969_1_)" enable-background="new    " d="M48,8C18.367,8,8,18.367,8,48
	s10.367,40,40,40c29.64,0,40-10.365,40-40S77.637,8,48,8z M48,87C18.842,87,9,77.158,9,48S18.842,9,48,9s39,9.842,39,39
	S77.16,87,48,87z"/>
<linearGradient id="SVGID_1_" gradientUnits="userSpaceOnUse" x1="48.0647" y1="29.82" x2="48.0647" y2="68.1802">
	<stop  offset="0" style="stop-color:#FFFFFF"/>
	<stop  offset="1" style="stop-color:#D0CCCE"/>
</linearGradient>
<path fill="url(#SVGID_1_)" d="M74.437,41.241v-0.714c0-5.913-4.638-10.707-10.36-10.707c-2.748,0-5.383,1.128-7.326,3.136
	l-0.617,0.637c-1.969-2.313-4.855-3.773-8.07-3.773s-6.101,1.46-8.07,3.773l-0.617-0.637c-1.943-2.008-4.578-3.136-7.326-3.136
	c-5.722,0-10.36,4.794-10.36,10.707v0.714c0,3.029,1.164,5.934,3.236,8.076l14.799,15.294c2.211,2.285,5.21,3.569,8.337,3.569
	c3.111,0,6.095-1.27,8.303-3.533l0.384,0.397c1.943,2.008,4.578,3.136,7.326,3.136c5.722,0,10.36-4.794,10.36-10.707
	c0-2.84-1.092-5.563-3.034-7.571l-0.384-0.397l0.182-0.188C73.273,47.175,74.437,44.27,74.437,41.241z M61.877,50.137
	c1.031,1.192,2.047,2.402,3.004,3.657c0.57,0.747,1.092,1.558,1.5,2.409c0.487,1.018,0.409,2.052-0.401,2.918
	c-0.826,0.882-1.834,1.432-2.979,0.899c-1.031-0.48-2.003-1.147-2.901-1.866c-1.221-0.977-2.354-2.074-3.512-3.134
	c-0.647-0.592-1.244-0.565-1.864,0.047c-1.246,1.231-2.502,2.452-3.761,3.669c-1.952,1.887-3.071,2.082-5.072,0.256
	c-2.979-2.718-5.824-5.603-8.621-8.524c-2.517-2.63-4.916-5.384-7.319-8.127c-1.072-1.224-1.021-2.148-0.019-3.394
	c1.061-1.318,2.451-1.793,3.616-0.988c1.203,0.833,2.28,1.869,3.367,2.869c1.815,1.67,3.568,3.415,5.409,5.053
	c0.418,0.372,1.28,0.769,1.598,0.571c0.45-0.28,0.739-1.08,0.821-1.697c0.192-1.442,0.099-2.93,0.342-4.359
	c0.348-2.047,1.402-2.889,3.146-2.814c1.589,0.068,2.6,1.074,2.866,3.034c0.172,1.264,0.105,2.563,0.288,3.824
	c0.097,0.672,0.345,1.613,0.806,1.851c0.446,0.231,1.407-0.094,1.874-0.502c1.788-1.56,3.452-3.272,5.197-4.885
	c1.052-0.972,2.101-1.978,3.275-2.773c1.807-1.225,4.315,0.306,4.357,2.961c-0.236,0.441-0.539,1.267-1.052,1.913
	c-1.263,1.588-2.603,3.111-3.951,4.624C61.117,48.496,61.126,49.268,61.877,50.137z"/>
</svg>
